<svg width="20" height="19" viewBox="0 0 20 19" fill="none" xmlns="http://www.w3.org/2000/svg">
<path d="M3.1099 18.653C2.5173 18.653 2.0136 18.4455 1.59878 18.0307C1.18397 17.6159 0.976562 17.1122 0.976562 16.5196C0.976562 15.927 1.18397 15.4233 1.59878 15.0085C2.0136 14.5937 2.5173 14.3863 3.1099 14.3863C3.70249 14.3863 4.20619 14.5937 4.62101 15.0085C5.03582 15.4233 5.24323 15.927 5.24323 16.5196C5.24323 17.1122 5.03582 17.6159 4.62101 18.0307C4.20619 18.4455 3.70249 18.653 3.1099 18.653ZM12.5914 18.653C11.9988 18.653 11.4951 18.4455 11.0803 18.0307C10.6655 17.6159 10.458 17.1122 10.458 16.5196C10.458 15.927 10.6655 15.4233 11.0803 15.0085C11.4951 14.5937 11.9988 14.3863 12.5914 14.3863C13.184 14.3863 13.6877 14.5937 14.1025 15.0085C14.5173 15.4233 14.7247 15.927 14.7247 16.5196C14.7247 17.1122 14.5173 17.6159 14.1025 18.0307C13.6877 18.4455 13.184 18.653 12.5914 18.653ZM7.85064 13.9122C7.25804 13.9122 6.75434 13.7048 6.33953 13.29C5.92471 12.8752 5.7173 12.3715 5.7173 11.7789C5.7173 11.1863 5.92471 10.6826 6.33953 10.2678C6.75434 9.85295 7.25804 9.64554 7.85064 9.64554C8.44323 9.64554 8.94693 9.85295 9.36175 10.2678C9.77656 10.6826 9.98397 11.1863 9.98397 11.7789C9.98397 12.3715 9.77656 12.8752 9.36175 13.29C8.94693 13.7048 8.44323 13.9122 7.85064 13.9122ZM17.3321 13.9122C16.7395 13.9122 16.2358 13.7048 15.821 13.29C15.4062 12.8752 15.1988 12.3715 15.1988 11.7789C15.1988 11.1863 15.4062 10.6826 15.821 10.2678C16.2358 9.85295 16.7395 9.64554 17.3321 9.64554C17.9247 9.64554 18.4284 9.85295 18.8432 10.2678C19.258 10.6826 19.4655 11.1863 19.4655 11.7789C19.4655 12.3715 19.258 12.8752 18.8432 13.29C18.4284 13.7048 17.9247 13.9122 17.3321 13.9122ZM3.1099 9.17147C2.5173 9.17147 2.0136 8.96406 1.59878 8.54925C1.18397 8.13443 0.976562 7.63073 0.976562 7.03814C0.976562 6.44554 1.18397 5.94184 1.59878 5.52703C2.0136 5.11221 2.5173 4.9048 3.1099 4.9048C3.70249 4.9048 4.20619 5.11221 4.62101 5.52703C5.03582 5.94184 5.24323 6.44554 5.24323 7.03814C5.24323 7.63073 5.03582 8.13443 4.62101 8.54925C4.20619 8.96406 3.70249 9.17147 3.1099 9.17147ZM12.5914 9.17147C11.9988 9.17147 11.4951 8.96406 11.0803 8.54925C10.6655 8.13443 10.458 7.63073 10.458 7.03814C10.458 6.44554 10.6655 5.94184 11.0803 5.52703C11.4951 5.11221 11.9988 4.9048 12.5914 4.9048C13.184 4.9048 13.6877 5.11221 14.1025 5.52703C14.5173 5.94184 14.7247 6.44554 14.7247 7.03814C14.7247 7.63073 14.5173 8.13443 14.1025 8.54925C13.6877 8.96406 13.184 9.17147 12.5914 9.17147ZM7.85064 4.43073C7.25804 4.43073 6.75434 4.22332 6.33953 3.80851C5.92471 3.39369 5.7173 2.88999 5.7173 2.2974C5.7173 1.7048 5.92471 1.2011 6.33953 0.786285C6.75434 0.37147 7.25804 0.164062 7.85064 0.164062C8.44323 0.164062 8.94693 0.37147 9.36175 0.786285C9.77656 1.2011 9.98397 1.7048 9.98397 2.2974C9.98397 2.88999 9.77656 3.39369 9.36175 3.80851C8.94693 4.22332 8.44323 4.43073 7.85064 4.43073ZM17.3321 4.43073C16.7395 4.43073 16.2358 4.22332 15.821 3.80851C15.4062 3.39369 15.1988 2.88999 15.1988 2.2974C15.1988 1.7048 15.4062 1.2011 15.821 0.786285C16.2358 0.37147 16.7395 0.164062 17.3321 0.164062C17.9247 0.164062 18.4284 0.37147 18.8432 0.786285C19.258 1.2011 19.4655 1.7048 19.4655 2.2974C19.4655 2.88999 19.258 3.39369 18.8432 3.80851C18.4284 4.22332 17.9247 4.43073 17.3321 4.43073Z" fill="#333333"/>
</svg>
